<svg xmlns="http://www.w3.org/2000/svg" xmlns:xlink="http://www.w3.org/1999/xlink" version="1.1" x="0px" y="0px" viewBox="0 0 100 125" style="enable-background:new 0 0 100 100;" xml:space="preserve"><g><path d="M50,16.2c-18.7,0-33.8,15.2-33.8,33.8c0,18.7,15.2,33.8,33.8,33.8c18.7,0,33.8-15.2,33.8-33.8C83.8,31.3,68.7,16.2,50,16.2   z M50,79c-16,0-29-13-29-29s13-29,29-29s29,13,29,29S66,79,50,79z"/><path d="M46.7,59.7L46.7,59.7c-0.6,0-1.3-0.3-1.7-0.7l-7.6-7.6c-0.9-0.9-0.9-2.5,0-3.4c0.9-0.9,2.5-0.9,3.4,0l5.9,5.9l12.5-12.5   c0.9-0.9,2.5-0.9,3.4,0c0.9,0.9,0.9,2.5,0,3.4L48.4,59C48,59.5,47.3,59.7,46.7,59.7z"/></g></svg>