<svg xmlns="http://www.w3.org/2000/svg" xmlns:xlink="http://www.w3.org/1999/xlink" version="1.1" x="0px" y="0px" viewBox="0 0 100 125" style="enable-background:new 0 0 100 100;" xml:space="preserve"><g transform="translate(493.000000, 195.000000)"><path d="M-459.6-170.1c8.8,11.4,21.1,27.5,37.1,48.3c6.6-5.5,10.8-13.6,10.8-22.7c0-16.6-14-30.1-31.3-30.1   C-449.1-174.6-454.8-172.9-459.6-170.1z M-427.1-118.5c-16-20.8-28.3-36.8-37-48.2c-6.3,5.5-10.2,13.4-10.2,22.2   c0,16.6,14,30.1,31.3,30.1C-437.2-114.4-431.8-115.9-427.1-118.5z M-443-108.9c-20.5,0-37-15.9-37-35.6s16.6-35.6,37-35.6   s37,15.9,37,35.6S-422.5-108.9-443-108.9z"/></g></svg>