<svg xmlns="http://www.w3.org/2000/svg" xmlns:xlink="http://www.w3.org/1999/xlink" version="1.1" x="0px" y="0px" viewBox="0 0 100 125" style="enable-background:new 0 0 100 100;" xml:space="preserve"><g><g><path d="M85,49.9c0,19.3-15.7,35-35,35c-19.3,0-35-15.7-35-35c0-19.3,15.7-35,35-35C69.3,14.9,85,30.6,85,49.9z M79,49.9    c0-16-13-29-29-29c-16,0-29,13-29,29c0,16,13,29,29,29C66,79,79,65.9,79,49.9z"/></g><g><path d="M50,44.8c-1.7,0-3,1.3-3,3v15.3c0,1.7,1.3,3,3,3c1.7,0,3-1.3,3-3V47.8C53,46.1,51.7,44.8,50,44.8z"/></g><g><path d="M50,33.8c-0.8,0-1.6,0.3-2.1,0.9C47.3,35.2,47,36,47,36.8c0,0.2,0,0.4,0.1,0.6c0,0.2,0.1,0.4,0.2,0.6    c0.1,0.2,0.2,0.3,0.3,0.5c0.1,0.2,0.2,0.3,0.4,0.5c1.1,1.1,3.1,1.1,4.2,0c0.1-0.1,0.3-0.3,0.4-0.5c0.1-0.2,0.2-0.3,0.3-0.5    c0.1-0.2,0.1-0.4,0.2-0.6c0-0.2,0.1-0.4,0.1-0.6c0-0.8-0.3-1.6-0.9-2.1C51.6,34.1,50.8,33.8,50,33.8z"/></g></g></svg>